<svg width="34" height="32" viewBox="0 0 34 32" fill="none" xmlns="http://www.w3.org/2000/svg">
<rect width="34" height="32" rx="6" fill="url(#paint0_linear_322_12)"/>
<path d="M18.6152 4.5V7.5H25.8848V9.5H18.6152V15H22.3457C23.7241 15 25.0397 15.509 26.0039 16.4043C26.9667 17.2984 27.5 18.5028 27.5 19.75L27.4941 19.9834C27.432 21.1467 26.9065 22.2575 26.0039 23.0957C25.0397 23.991 23.7241 24.5 22.3457 24.5H18.6152V27.5H16.3848V24.5H9.11523V22.5H16.3848V17H12.6543C11.9726 17 11.2979 16.8753 10.6699 16.6338C10.0419 16.3922 9.47319 16.0387 8.99609 15.5957C8.51918 15.1528 8.14262 14.6293 7.88672 14.0557C7.63084 13.482 7.5 12.8684 7.5 12.25C7.5 11.6316 7.63084 11.018 7.88672 10.4443C8.14262 9.8707 8.51918 9.34718 8.99609 8.9043C9.47319 8.46128 10.0419 8.10777 10.6699 7.86621C11.2979 7.62469 11.9726 7.5 12.6543 7.5H16.3848V4.5H18.6152ZM18.6152 22.5H22.3457C23.1095 22.5 23.8489 22.2182 24.3994 21.707C24.9512 21.1947 25.2695 20.4918 25.2695 19.75L25.2549 19.4736C25.1865 18.8352 24.8822 18.2412 24.3994 17.793C23.8489 17.2818 23.1095 17 22.3457 17H18.6152V22.5ZM12.6543 9.5C12.2754 9.5 11.8987 9.56974 11.5469 9.70508C11.1951 9.84042 10.8734 10.0396 10.6006 10.293C10.3276 10.5465 10.109 10.8493 9.95898 11.1855C9.80899 11.5218 9.73047 11.8835 9.73047 12.25C9.73047 12.6165 9.80899 12.9782 9.95898 13.3145C10.109 13.6507 10.3276 13.9535 10.6006 14.207C10.8734 14.4604 11.1951 14.6596 11.5469 14.7949C11.8987 14.9303 12.2754 15 12.6543 15H16.3848V9.5H12.6543Z" fill="white" stroke="white"/>
<defs>
<linearGradient id="paint0_linear_322_12" x1="-2.22417e-06" y1="38" x2="53.5" y2="-18.5" gradientUnits="userSpaceOnUse">
<stop stop-color="#1C8548"/>
<stop offset="1" stop-color="#5BBE7F"/>
</linearGradient>
</defs>
</svg>
