<svg width="55" height="56" viewBox="0 0 55 56" fill="none" xmlns="http://www.w3.org/2000/svg">
<path d="M27.3371 0.000355311C27.3899 0.000309413 27.4427 0.000263515 27.4971 0.000216225C27.6081 0.000183742 27.7191 0.000271119 27.8301 0.000472436C27.9992 0.00072958 28.1684 0.000474178 28.3376 0.000167911C28.4458 0.000199611 28.5541 0.000261072 28.6624 0.000355311C28.7126 0.0002582 28.7628 0.000161089 28.8145 6.10352e-05C29.0825 0.000913225 29.3384 0.0171134 29.6037 0.0547013C29.6817 0.059882 29.7598 0.0640103 29.838 0.0665075C29.8788 0.0680226 29.9195 0.0695377 29.9616 0.0710987C30.0249 0.0733714 30.0249 0.0733714 30.0895 0.07569C30.4426 0.0902407 30.7842 0.120065 31.1333 0.176324C31.2784 0.197965 31.4213 0.210101 31.5677 0.219613C31.8412 0.240433 32.1029 0.2921 32.3711 0.348919C32.5181 0.379452 32.6654 0.40545 32.8137 0.429126C34.0202 0.622506 35.2065 0.924224 36.3681 1.30203C36.4446 1.32657 36.4446 1.32657 36.5225 1.3516C36.6811 1.40258 36.8395 1.45412 36.9978 1.50593C37.0708 1.52963 37.0708 1.52963 37.1453 1.55381C37.3677 1.62781 37.5605 1.70386 37.7594 1.82975C37.8594 1.86728 37.9604 1.90226 38.0622 1.9347C38.1391 1.95946 38.1391 1.95946 38.2176 1.98473C38.2563 1.99691 38.2951 2.0091 38.3351 2.02165C38.3351 2.05331 38.3351 2.08498 38.3351 2.1176C38.3762 2.12267 38.4173 2.12774 38.4597 2.13297C38.6346 2.16791 38.7713 2.22609 38.9317 2.3035C39.1468 2.40652 39.3631 2.50357 39.5824 2.59734C40.2232 2.88557 40.8687 3.18386 41.4472 3.5855C41.5552 3.65664 41.6655 3.71598 41.7802 3.77571C42.388 4.10124 42.9558 4.50669 43.5253 4.89411C43.5614 4.91861 43.5975 4.9431 43.6347 4.96834C43.8909 5.14396 44.1362 5.33118 44.3798 5.52378C44.4366 5.56816 44.4935 5.61251 44.5504 5.65683C45.0364 6.03719 45.5182 6.41853 45.9686 6.8411C46.0992 6.96451 46.0992 6.96451 46.2508 7.05896C46.2508 7.09062 46.2508 7.12228 46.2508 7.15491C46.2795 7.1679 46.3081 7.1809 46.3376 7.19429C46.4413 7.2501 46.5075 7.30455 46.5895 7.38822C46.6159 7.41497 46.6423 7.44171 46.6696 7.46927C46.7101 7.51106 46.7101 7.51106 46.7516 7.55369C46.7784 7.581 46.8053 7.6083 46.833 7.63643C46.8861 7.6904 46.9391 7.74445 46.992 7.79859C47.1308 7.94032 47.2711 8.08038 47.4136 8.2184C47.4465 8.25037 47.4793 8.28234 47.5131 8.31529C47.5466 8.34763 47.5801 8.37997 47.6145 8.4133C47.6901 8.49819 47.6901 8.49819 47.6901 8.59414C47.7375 8.60997 47.785 8.6258 47.834 8.64211C47.834 8.67377 47.834 8.70544 47.834 8.73806C47.8656 8.73806 47.8973 8.73806 47.9299 8.73806C47.9942 8.80009 47.9942 8.80009 48.0708 8.89098C48.1007 8.92617 48.1306 8.96135 48.1614 8.99761C48.213 9.05911 48.213 9.05911 48.2657 9.12185C48.3056 9.1683 48.3455 9.21474 48.3866 9.26259C48.6419 9.56038 48.8891 9.86344 49.13 10.173C49.2629 10.3438 49.3986 10.5117 49.5371 10.678C49.895 11.1136 50.2294 11.5686 50.5264 12.0479C50.5977 12.1621 50.6703 12.275 50.7441 12.3875C50.964 12.7228 51.179 13.0561 51.3657 13.4114C51.4379 13.5463 51.5155 13.6771 51.594 13.8083C51.7805 14.1259 51.9429 14.4537 52.105 14.7841C52.1491 14.8736 52.1938 14.9627 52.2388 15.0517C52.5222 15.6127 52.7968 16.1712 53.009 16.7633C53.0678 16.9265 53.1315 17.0849 53.2035 17.2426C53.3164 17.4928 53.4061 17.7496 53.495 18.0091C53.5201 18.082 53.5201 18.082 53.5458 18.1563C53.6499 18.4597 53.7494 18.7637 53.8407 19.0711C53.8742 19.1814 53.9115 19.289 53.9507 19.3974C54.0343 19.6441 54.0853 19.8982 54.1401 20.1525C54.1928 20.397 54.2509 20.6394 54.3135 20.8816C54.4106 21.2603 54.4823 21.6421 54.5504 22.027C54.5673 22.1199 54.5843 22.2129 54.6014 22.3058C54.6083 22.3446 54.6153 22.3833 54.6225 22.4232C54.6377 22.5071 54.6532 22.5909 54.6692 22.6747C55.1382 25.1632 55.0479 27.7451 54.7882 30.2506C54.7843 30.2884 54.7804 30.3262 54.7764 30.3651C54.753 30.5843 54.7214 30.798 54.6731 31.013C54.6434 31.156 54.6207 31.2994 54.5981 31.4437C54.5367 31.8328 54.4562 32.2112 54.3566 32.5922C54.3144 32.7579 54.2784 32.9234 54.2446 33.091C54.0779 33.873 53.8413 34.6323 53.5909 35.3908C53.5789 35.4276 53.5668 35.4645 53.5544 35.5024C53.4176 35.9196 53.2708 36.3208 53.0774 36.7156C53.0132 36.8555 52.9649 36.995 52.9193 37.1419C52.8409 37.3875 52.7387 37.6083 52.62 37.8368C52.5366 38.0001 52.4583 38.165 52.3807 38.3312C51.9822 39.1844 51.5295 40.0052 51.0275 40.802C50.9472 40.9273 50.9472 40.9273 50.9043 41.0728C50.8727 41.0728 50.841 41.0728 50.8084 41.0728C50.7956 41.1073 50.7828 41.1419 50.7696 41.1775C50.5987 41.5816 50.3117 41.935 50.0462 42.2806C49.9783 42.3714 49.9129 42.4641 49.85 42.5585C49.5762 42.9688 49.257 43.3514 48.9426 43.731C48.815 43.8877 48.6936 44.0488 48.5733 44.2112C48.5398 44.2487 48.5398 44.2487 48.5056 44.2871C48.474 44.2871 48.4423 44.2871 48.4097 44.2871C48.3934 44.3261 48.3934 44.3261 48.3769 44.366C48.2945 44.5133 48.1856 44.6295 48.0708 44.7518C48.0476 44.7769 48.0243 44.8021 48.0003 44.828C47.8169 45.0248 47.6278 45.2154 47.4348 45.4028C47.3505 45.482 47.3505 45.482 47.3063 45.5824C47.2746 45.5824 47.2429 45.5824 47.2103 45.5824C47.1974 45.613 47.1846 45.6437 47.1713 45.6753C47.1144 45.7743 47.1144 45.7743 46.9704 45.8222C46.9546 45.8697 46.9388 45.9172 46.9225 45.9662C46.8908 45.9662 46.8591 45.9662 46.8265 45.9662C46.8265 45.9978 46.8265 46.0295 46.8265 46.0621C46.7662 46.123 46.7662 46.123 46.6766 46.197C46.4814 46.3627 46.2938 46.535 46.1069 46.7098C45.6876 47.1001 45.2571 47.465 44.8045 47.816C44.7151 47.8856 44.626 47.9556 44.537 48.0257C44.4807 48.0698 44.4242 48.1139 44.3678 48.158C44.3415 48.1788 44.3152 48.1996 44.2881 48.2211C44.1029 48.3649 44.1029 48.3649 43.996 48.3649C43.996 48.3965 43.996 48.4282 43.996 48.4608C43.9042 48.5268 43.9042 48.5268 43.7741 48.6047C43.5907 48.7178 43.4132 48.8346 43.2397 48.9624C42.8288 49.2651 42.3952 49.5247 41.9551 49.7827C41.8452 49.8473 41.7358 49.9127 41.6265 49.9784C41.1308 50.2753 40.6242 50.5479 40.1101 50.8116C40.0752 50.8295 40.0404 50.8475 40.0045 50.866C39.6448 51.0508 39.2849 51.2263 38.9094 51.3773C38.7536 51.4406 38.6 51.5084 38.446 51.5762C38.1569 51.7008 37.8639 51.8071 37.5663 51.9095C37.3907 51.9703 37.2201 52.0338 37.0517 52.1129C36.7854 52.2362 36.5052 52.3119 36.2242 52.3947C36.1504 52.4172 36.0766 52.4398 36.0029 52.4624C35.2748 52.6849 34.5454 52.8944 33.7964 53.0339C33.6468 53.0637 33.4998 53.0998 33.3521 53.1374C32.6768 53.302 31.9847 53.4025 31.2947 53.4803C31.1899 53.4923 31.0851 53.505 30.9805 53.5182C29.9603 53.6457 28.9421 53.6551 27.9156 53.654C27.8817 53.654 27.8478 53.654 27.8128 53.654C27.5825 53.6539 27.3523 53.653 27.122 53.6518C27.0637 53.6516 27.0054 53.6514 26.9454 53.6512C25.9356 53.643 25.9356 53.643 25.4779 53.5461C25.3671 53.5378 25.2561 53.5309 25.1451 53.5251C24.7887 53.5038 24.4396 53.4567 24.0867 53.4022C24.0156 53.3922 23.9445 53.3822 23.8734 53.3724C23.0094 53.2509 22.1499 53.092 21.3099 52.8545C21.1851 52.8201 21.0599 52.7879 20.9346 52.7557C20.8614 52.7368 20.8614 52.7368 20.7867 52.7176C20.6906 52.6929 20.5945 52.6684 20.4984 52.6439C20.255 52.581 20.0159 52.5123 19.7781 52.4306C19.6712 52.3941 19.5638 52.3597 19.456 52.3258C18.7953 52.1144 18.1564 51.8587 17.5164 51.5918C17.3891 51.539 17.2615 51.4872 17.1336 51.4362C16.6041 51.2244 16.0894 50.9858 15.5943 50.7019C15.144 50.4311 15.144 50.4311 14.6357 50.4278C14.5076 50.4679 14.3835 50.5131 14.2589 50.563C14.1058 50.6205 13.953 50.6659 13.7954 50.7094C13.4562 50.8049 13.1209 50.9098 12.7857 51.0185C12.6987 51.0465 12.6987 51.0465 12.61 51.0751C12.2559 51.1895 11.9029 51.307 11.5504 51.4262C11.2117 51.5408 10.8727 51.6413 10.5255 51.7268C10.3732 51.7691 10.2296 51.8209 10.0823 51.8775C9.91115 51.9416 9.73686 51.9954 9.56244 52.0499C9.52355 52.0621 9.48466 52.0744 9.4446 52.087C9.11071 52.1915 8.77566 52.2921 8.43986 52.3903C8.22966 52.4524 8.02468 52.5214 7.8201 52.6C7.66819 52.6567 7.5136 52.704 7.35861 52.7515C7.32896 52.7607 7.29931 52.7699 7.26876 52.7794C7.12069 52.8252 6.97255 52.8706 6.82417 52.9154C6.52927 53.005 6.23614 53.0987 5.94412 53.1972C5.89372 53.2142 5.89372 53.2142 5.84229 53.2315C5.70405 53.2782 5.56584 53.3249 5.42772 53.3719C4.7546 53.6008 4.7546 53.6008 4.41084 53.6686C4.26128 53.7043 4.12538 53.7713 3.98542 53.834C3.86369 53.8747 3.74239 53.9138 3.61961 53.9509C3.58633 53.9611 3.55306 53.9713 3.51877 53.9819C3.45093 54.0027 3.38307 54.0235 3.31518 54.0441C3.17266 54.0876 3.03035 54.1317 2.888 54.1758C2.67082 54.2426 2.45322 54.3078 2.23492 54.3709C2.13696 54.4024 2.04042 54.4383 1.94445 54.4754C1.63723 54.5919 1.31936 54.6749 1.00351 54.7644C0.785977 54.8267 0.573041 54.8894 0.363354 54.9748C0.195209 55.0334 0.161741 55.0365 0.0035464 54.9853C-0.0167094 54.6932 0.0517392 54.4814 0.159463 54.2118C0.190581 54.131 0.221564 54.0501 0.252413 53.9693C0.274955 53.9103 0.274955 53.9103 0.297952 53.8501C0.370639 53.6534 0.429275 53.4531 0.487038 53.2515C0.529449 53.12 0.582222 52.9962 0.637731 52.8698C0.706524 52.7022 0.757189 52.5288 0.810115 52.3557C0.909224 52.0369 1.01043 51.719 1.11595 51.4023C1.12735 51.3678 1.13875 51.3334 1.15049 51.298C1.16154 51.2649 1.17259 51.2319 1.18398 51.1978C1.19345 51.1694 1.20292 51.1411 1.21269 51.1118C1.24693 51.0147 1.28292 50.9184 1.31943 50.8221C1.3898 50.6352 1.45409 50.4465 1.51624 50.2567C1.53927 50.1869 1.56231 50.1171 1.58536 50.0473C1.59731 50.0111 1.60925 49.9749 1.62155 49.9376C1.82473 49.3218 2.0333 48.7084 2.25234 48.098C2.43098 47.6001 2.59997 47.1008 2.75455 46.5949C2.85723 46.2656 2.97118 45.9397 3.08253 45.6133C3.10373 45.5511 3.10373 45.5511 3.12536 45.4877C3.1551 45.4005 3.18486 45.3133 3.21462 45.2261C3.2594 45.0948 3.30411 44.9636 3.34882 44.8323C3.78816 43.5439 3.78816 43.5439 3.94044 43.1866C4.04365 42.9344 4.10631 42.674 4.17394 42.4104C4.23798 42.1699 4.32344 41.9376 4.4095 41.7041C4.4568 41.5753 4.50092 41.4462 4.54312 41.3156C4.58543 41.1848 4.63474 41.0623 4.69304 40.9378C4.75766 40.7731 4.76062 40.7508 4.70503 40.593C4.66226 40.5054 4.61703 40.419 4.57029 40.3335C4.5426 40.2825 4.51491 40.2315 4.48637 40.179C4.45661 40.1246 4.42686 40.0703 4.3962 40.0143C4.34998 39.9293 4.30386 39.8442 4.25773 39.7591C4.21166 39.6741 4.16551 39.5891 4.11936 39.5042C3.66499 38.6665 3.22149 37.8272 2.89775 36.9292C2.8406 36.773 2.77916 36.6202 2.7141 36.4672C2.49622 35.9502 2.30421 35.4313 2.15621 34.8897C2.12024 34.761 2.08034 34.6355 2.03646 34.5093C1.9775 34.3378 1.93787 34.1665 1.90106 33.9891C1.87357 33.8637 1.87357 33.8637 1.8112 33.6956C1.69802 33.3607 1.6231 33.0156 1.54472 32.6713C1.53633 32.6345 1.52794 32.5977 1.5193 32.5598C0.842368 29.5733 0.768069 26.5027 1.10696 23.4662C1.11492 23.3932 1.11492 23.3932 1.12305 23.3187C1.20151 22.6184 1.34753 21.9383 1.50724 21.2523C1.54408 21.0922 1.57774 20.9316 1.61069 20.7706C1.79318 19.9151 2.00554 19.0609 2.31607 18.2421C2.35582 18.137 2.3947 18.0316 2.43337 17.9261C2.51856 17.6938 2.60422 17.4616 2.69011 17.2295C2.71157 17.1715 2.73303 17.1134 2.75514 17.0536C2.89274 16.688 3.05092 16.3352 3.21783 15.9822C3.25793 15.8953 3.29802 15.8084 3.33808 15.7214C3.72794 14.8787 4.16615 14.0633 4.60908 13.2476C4.64075 13.2476 4.67241 13.2476 4.70503 13.2476C4.71297 13.2067 4.71297 13.2067 4.72107 13.1649C4.75728 13.0411 4.81026 12.9526 4.88025 12.8444C4.91833 12.7849 4.91833 12.7849 4.95718 12.7242C4.9838 12.6832 5.01043 12.6422 5.03785 12.6C5.09034 12.5186 5.14276 12.4371 5.19508 12.3556C5.21839 12.3197 5.2417 12.2837 5.26572 12.2467C5.32473 12.1507 5.37602 12.0539 5.42465 11.9523C5.45631 11.9523 5.48797 11.9523 5.5206 11.9523C5.53049 11.9207 5.54039 11.889 5.55058 11.8564C5.62454 11.695 5.71833 11.5715 5.82662 11.4317C5.9005 11.3338 5.96714 11.234 6.03332 11.1308C6.22099 10.8459 6.43572 10.5826 6.64823 10.316C6.72233 10.2223 6.79529 10.1277 6.868 10.0328C6.89192 10.0018 6.91584 9.97074 6.94049 9.93877C6.98668 9.87879 7.03265 9.81864 7.07839 9.75832C7.1326 9.68832 7.18988 9.6207 7.24767 9.55362C7.27934 9.55362 7.311 9.55362 7.34362 9.55362C7.35444 9.52753 7.36527 9.50143 7.37642 9.47454C7.45857 9.3278 7.56767 9.2132 7.68244 9.09187C7.73038 9.04048 7.77829 8.98907 7.82618 8.93764C7.85004 8.91211 7.8739 8.88657 7.89849 8.86027C7.99699 8.75399 8.093 8.64555 8.18917 8.53717C8.39493 8.3078 8.61107 8.0904 8.83083 7.87452C8.87239 7.83296 8.91394 7.79141 8.95676 7.74859C8.99436 7.71099 9.03196 7.67339 9.0707 7.63465C9.09562 7.60917 9.12054 7.58369 9.14622 7.55744C9.32162 7.37929 9.50332 7.21309 9.69287 7.05015C9.79276 6.96083 9.88587 6.86723 9.97921 6.77111C10.135 6.61348 10.2978 6.4778 10.4745 6.3444C10.6462 6.21237 10.8131 6.07481 10.9807 5.93756C11.4351 5.56705 11.8975 5.21683 12.388 4.89486C12.5115 4.813 12.6323 4.72846 12.7527 4.64225C12.9951 4.47111 13.246 4.31482 13.4983 4.15897C13.6421 4.07014 13.7843 3.98046 13.9247 3.88628C14.0455 3.80632 14.1661 3.73574 14.2939 3.66777C14.4777 3.56912 14.6595 3.46791 14.8403 3.36383C15.8268 2.79877 16.852 2.32251 17.9182 1.92959C18.2415 1.81039 18.5588 1.67767 18.8749 1.54078C19.2272 1.39276 19.5916 1.2918 19.9583 1.18681C20.0968 1.14646 20.2342 1.10277 20.3717 1.05916C20.7269 0.949296 21.0868 0.861129 21.4481 0.774317C21.4828 0.765891 21.5175 0.757465 21.5532 0.748783C21.6591 0.723113 21.7649 0.697694 21.8709 0.672371C21.9023 0.664765 21.9338 0.657158 21.9663 0.649321C22.2395 0.58477 22.5149 0.535185 22.7914 0.48647C22.8424 0.477318 22.8934 0.468165 22.946 0.458735C24.0337 0.264206 25.1069 0.088949 26.2131 0.0622675C26.3223 0.0558298 26.4283 0.0441154 26.5367 0.0304798C26.8036 -3.06288e-05 27.0688 -0.000164977 27.3371 0.000355311Z" fill="#00A437"/>
<path d="M27.3371 0.000355311C27.3899 0.000309413 27.4427 0.000263515 27.4971 0.000216225C27.6081 0.000183742 27.7191 0.000271119 27.8301 0.000472436C27.9992 0.00072958 28.1684 0.000474178 28.3376 0.000167911C28.4458 0.000199611 28.5541 0.000261072 28.6624 0.000355311C28.7126 0.0002582 28.7628 0.000161089 28.8145 6.10352e-05C29.0825 0.000913225 29.3384 0.0171134 29.6037 0.0547013C29.6817 0.059882 29.7598 0.0640103 29.838 0.0665075C29.8788 0.0680226 29.9195 0.0695377 29.9616 0.0710987C30.0249 0.0733714 30.0249 0.0733714 30.0895 0.07569C30.4426 0.0902407 30.7842 0.120065 31.1333 0.176324C31.2784 0.197965 31.4213 0.210101 31.5677 0.219613C31.8412 0.240433 32.1029 0.2921 32.3711 0.348919C32.5181 0.379452 32.6654 0.40545 32.8137 0.429126C34.0202 0.622506 35.2065 0.924224 36.3681 1.30203C36.4446 1.32657 36.4446 1.32657 36.5225 1.3516C36.6811 1.40258 36.8395 1.45412 36.9978 1.50593C37.0708 1.52963 37.0708 1.52963 37.1453 1.55381C37.3677 1.62781 37.5605 1.70386 37.7594 1.82975C37.8594 1.86728 37.9604 1.90226 38.0622 1.9347C38.1391 1.95946 38.1391 1.95946 38.2176 1.98473C38.2563 1.99691 38.2951 2.0091 38.3351 2.02165C38.3351 2.05331 38.3351 2.08498 38.3351 2.1176C38.3762 2.12267 38.4173 2.12774 38.4597 2.13297C38.6346 2.16791 38.7713 2.22609 38.9317 2.3035C39.1468 2.40652 39.3631 2.50357 39.5824 2.59734C40.2232 2.88557 40.8687 3.18386 41.4472 3.5855C41.5552 3.65664 41.6655 3.71598 41.7802 3.77571C42.388 4.10124 42.9558 4.50669 43.5253 4.89411C43.5614 4.91861 43.5975 4.9431 43.6347 4.96834C43.8909 5.14396 44.1362 5.33118 44.3798 5.52378C44.4366 5.56816 44.4935 5.61251 44.5504 5.65683C45.0364 6.03719 45.5182 6.41853 45.9686 6.8411C46.0992 6.96451 46.0992 6.96451 46.2508 7.05896C46.2508 7.09062 46.2508 7.12228 46.2508 7.15491C46.2795 7.1679 46.3081 7.1809 46.3376 7.19429C46.4413 7.2501 46.5075 7.30455 46.5895 7.38822C46.6159 7.41497 46.6423 7.44171 46.6696 7.46927C46.7101 7.51106 46.7101 7.51106 46.7516 7.55369C46.7784 7.581 46.8053 7.6083 46.833 7.63643C46.8861 7.6904 46.9391 7.74445 46.992 7.79859C47.1308 7.94032 47.2711 8.08038 47.4136 8.2184C47.4465 8.25037 47.4793 8.28234 47.5131 8.31529C47.5466 8.34763 47.5801 8.37997 47.6145 8.4133C47.6901 8.49819 47.6901 8.49819 47.6901 8.59414C47.7375 8.60997 47.785 8.6258 47.834 8.64211C47.834 8.67377 47.834 8.70544 47.834 8.73806C47.8656 8.73806 47.8973 8.73806 47.9299 8.73806C47.9942 8.80009 47.9942 8.80009 48.0708 8.89098C48.1007 8.92617 48.1306 8.96135 48.1614 8.99761C48.213 9.05911 48.213 9.05911 48.2657 9.12185C48.3056 9.1683 48.3455 9.21474 48.3866 9.26259C48.6419 9.56038 48.8891 9.86344 49.13 10.173C49.2629 10.3438 49.3986 10.5117 49.5371 10.678C49.895 11.1136 50.2294 11.5686 50.5264 12.0479C50.5977 12.1621 50.6703 12.275 50.7441 12.3875C50.964 12.7228 51.179 13.0561 51.3657 13.4114C51.4379 13.5463 51.5155 13.6771 51.594 13.8083C51.7805 14.1259 51.9429 14.4537 52.105 14.7841C52.1491 14.8736 52.1938 14.9627 52.2388 15.0517C52.5222 15.6127 52.7968 16.1712 53.009 16.7633C53.0678 16.9265 53.1315 17.0849 53.2035 17.2426C53.3164 17.4928 53.4061 17.7496 53.495 18.0091C53.5201 18.082 53.5201 18.082 53.5458 18.1563C53.6499 18.4597 53.7494 18.7637 53.8407 19.0711C53.8742 19.1814 53.9115 19.289 53.9507 19.3974C54.0343 19.6441 54.0853 19.8982 54.1401 20.1525C54.1928 20.397 54.2509 20.6394 54.3135 20.8816C54.4106 21.2603 54.4823 21.6421 54.5504 22.027C54.5673 22.1199 54.5843 22.2129 54.6014 22.3058C54.6083 22.3446 54.6153 22.3833 54.6225 22.4232C54.6377 22.5071 54.6532 22.5909 54.6692 22.6747C55.1382 25.1632 55.0479 27.7451 54.7882 30.2506C54.7843 30.2884 54.7804 30.3262 54.7764 30.3651C54.753 30.5843 54.7214 30.798 54.6731 31.013C54.6434 31.156 54.6207 31.2994 54.5981 31.4437C54.5367 31.8328 54.4562 32.2112 54.3566 32.5922C54.3144 32.7579 54.2784 32.9234 54.2446 33.091C54.0779 33.873 53.8413 34.6323 53.5909 35.3908C53.5789 35.4276 53.5668 35.4645 53.5544 35.5024C53.4176 35.9196 53.2708 36.3208 53.0774 36.7156C53.0132 36.8555 52.9649 36.995 52.9193 37.1419C52.8409 37.3875 52.7387 37.6083 52.62 37.8368C52.5366 38.0001 52.4583 38.165 52.3807 38.3312C51.9822 39.1844 51.5295 40.0052 51.0275 40.802C50.9472 40.9273 50.9472 40.9273 50.9043 41.0728C50.8727 41.0728 50.841 41.0728 50.8084 41.0728C50.7956 41.1073 50.7828 41.1419 50.7696 41.1775C50.5987 41.5816 50.3117 41.935 50.0462 42.2806C49.9783 42.3714 49.9129 42.4641 49.85 42.5585C49.5762 42.9688 49.257 43.3514 48.9426 43.731C48.815 43.8877 48.6936 44.0488 48.5733 44.2112C48.5398 44.2487 48.5398 44.2487 48.5056 44.2871C48.474 44.2871 48.4423 44.2871 48.4097 44.2871C48.3934 44.3261 48.3934 44.3261 48.3769 44.366C48.2945 44.5133 48.1856 44.6295 48.0708 44.7518C48.0476 44.7769 48.0243 44.8021 48.0003 44.828C47.8169 45.0248 47.6278 45.2154 47.4348 45.4028C47.3505 45.482 47.3505 45.482 47.3063 45.5824C47.2746 45.5824 47.2429 45.5824 47.2103 45.5824C47.1974 45.613 47.1846 45.6437 47.1713 45.6753C47.1144 45.7743 47.1144 45.7743 46.9704 45.8222C46.9546 45.8697 46.9388 45.9172 46.9225 45.9662C46.8908 45.9662 46.8591 45.9662 46.8265 45.9662C46.8265 45.9978 46.8265 46.0295 46.8265 46.0621C46.7662 46.123 46.7662 46.123 46.6766 46.197C46.4814 46.3627 46.2938 46.535 46.1069 46.7098C45.6876 47.1001 45.2571 47.465 44.8045 47.816C44.7151 47.8856 44.626 47.9556 44.537 48.0257C44.4807 48.0698 44.4242 48.1139 44.3678 48.158C44.3415 48.1788 44.3152 48.1996 44.2881 48.2211C44.1029 48.3649 44.1029 48.3649 43.996 48.3649C43.996 48.3965 43.996 48.4282 43.996 48.4608C43.9042 48.5268 43.9042 48.5268 43.7741 48.6047C43.5907 48.7178 43.4132 48.8346 43.2397 48.9624C42.8288 49.2651 42.3952 49.5247 41.9551 49.7827C41.8452 49.8473 41.7358 49.9127 41.6265 49.9784C41.1308 50.2753 40.6242 50.5479 40.1101 50.8116C40.0752 50.8295 40.0404 50.8475 40.0045 50.866C39.6448 51.0508 39.2849 51.2263 38.9094 51.3773C38.7536 51.4406 38.6 51.5084 38.446 51.5762C38.1569 51.7008 37.8639 51.8071 37.5663 51.9095C37.3907 51.9703 37.2201 52.0338 37.0517 52.1129C36.7854 52.2362 36.5052 52.3119 36.2242 52.3947C36.1504 52.4172 36.0766 52.4398 36.0029 52.4624C35.2748 52.6849 34.5454 52.8944 33.7964 53.0339C33.6468 53.0637 33.4998 53.0998 33.3521 53.1374C32.6768 53.302 31.9847 53.4025 31.2947 53.4803C31.1899 53.4923 31.0851 53.505 30.9805 53.5182C29.9603 53.6457 28.9421 53.6551 27.9156 53.654C27.8817 53.654 27.8478 53.654 27.8128 53.654C27.5825 53.6539 27.3523 53.653 27.122 53.6518C27.0637 53.6516 27.0054 53.6514 26.9454 53.6512C25.9356 53.643 25.9356 53.643 25.4779 53.5461C25.3671 53.5378 25.2561 53.5309 25.1451 53.5251C24.7887 53.5038 24.4396 53.4567 24.0867 53.4022C24.0156 53.3922 23.9445 53.3822 23.8734 53.3724C23.0094 53.2509 22.1499 53.092 21.3099 52.8545C21.1851 52.8201 21.0599 52.7879 20.9346 52.7557C20.8614 52.7368 20.8614 52.7368 20.7867 52.7176C20.6906 52.6929 20.5945 52.6684 20.4984 52.6439C20.255 52.581 20.0159 52.5123 19.7781 52.4306C19.6712 52.3941 19.5638 52.3597 19.456 52.3258C18.7953 52.1144 18.1564 51.8587 17.5164 51.5918C17.3891 51.539 17.2615 51.4872 17.1336 51.4362C16.6041 51.2244 16.0894 50.9858 15.5943 50.7019C15.144 50.4311 15.144 50.4311 14.6357 50.4278C14.5076 50.4679 14.3835 50.5131 14.2589 50.563C14.1058 50.6205 13.953 50.6659 13.7954 50.7094C13.4562 50.8049 13.1209 50.9098 12.7857 51.0185C12.6987 51.0465 12.6987 51.0465 12.61 51.0751C12.2559 51.1895 11.9029 51.307 11.5504 51.4262C11.2117 51.5408 10.8727 51.6413 10.5255 51.7268C10.3732 51.7691 10.2296 51.8209 10.0823 51.8775C9.91115 51.9416 9.73686 51.9954 9.56244 52.0499C9.52355 52.0621 9.48466 52.0744 9.4446 52.087C9.11071 52.1915 8.77566 52.2921 8.43986 52.3903C8.22966 52.4524 8.02468 52.5214 7.8201 52.6C7.66819 52.6567 7.5136 52.704 7.35861 52.7515C7.32896 52.7607 7.29931 52.7699 7.26876 52.7794C7.12069 52.8252 6.97255 52.8706 6.82417 52.9154C6.52927 53.005 6.23614 53.0987 5.94412 53.1972C5.89372 53.2142 5.89372 53.2142 5.84229 53.2315C5.70405 53.2782 5.56584 53.3249 5.42772 53.3719C4.7546 53.6008 4.7546 53.6008 4.41084 53.6686C4.26128 53.7043 4.12538 53.7713 3.98542 53.834C3.86369 53.8747 3.74239 53.9138 3.61961 53.9509C3.58633 53.9611 3.55306 53.9713 3.51877 53.9819C3.45093 54.0027 3.38307 54.0235 3.31518 54.0441C3.17266 54.0876 3.03035 54.1317 2.888 54.1758C2.67082 54.2426 2.45322 54.3078 2.23492 54.3709C2.13696 54.4024 2.04042 54.4383 1.94445 54.4754C1.63723 54.5919 1.31936 54.6749 1.00351 54.7644C0.785977 54.8267 0.573041 54.8894 0.363354 54.9748C0.195209 55.0334 0.161741 55.0365 0.0035464 54.9853C-0.0167094 54.6932 0.0517392 54.4814 0.159463 54.2118C0.190581 54.131 0.221564 54.0501 0.252413 53.9693C0.274955 53.9103 0.274955 53.9103 0.297952 53.8501C0.370639 53.6534 0.429275 53.4531 0.487038 53.2515C0.529449 53.12 0.582222 52.9962 0.637731 52.8698C0.706524 52.7022 0.757189 52.5288 0.810115 52.3557C0.909224 52.0369 1.01043 51.719 1.11595 51.4023C1.12735 51.3678 1.13875 51.3334 1.15049 51.298C1.16154 51.2649 1.17259 51.2319 1.18398 51.1978C1.19345 51.1694 1.20292 51.1411 1.21269 51.1118C1.24693 51.0147 1.28292 50.9184 1.31943 50.8221C1.3898 50.6352 1.45409 50.4465 1.51624 50.2567C1.53927 50.1869 1.56231 50.1171 1.58536 50.0473C1.59731 50.0111 1.60925 49.9749 1.62155 49.9376C1.82473 49.3218 2.0333 48.7084 2.25234 48.098C2.43098 47.6001 2.59997 47.1008 2.75455 46.5949C2.85723 46.2656 2.97118 45.9397 3.08253 45.6133C3.10373 45.5511 3.10373 45.5511 3.12536 45.4877C3.1551 45.4005 3.18486 45.3133 3.21462 45.2261C3.2594 45.0948 3.30411 44.9636 3.34882 44.8323C3.78816 43.5439 3.78816 43.5439 3.94044 43.1866C4.04365 42.9344 4.10631 42.674 4.17394 42.4104C4.23798 42.1699 4.32344 41.9376 4.4095 41.7041C4.4568 41.5753 4.50092 41.4462 4.54312 41.3156C4.58543 41.1848 4.63474 41.0623 4.69304 40.9378C4.75766 40.7731 4.76062 40.7508 4.70503 40.593C4.66226 40.5054 4.61703 40.419 4.57029 40.3335C4.5426 40.2825 4.51491 40.2315 4.48637 40.179C4.45661 40.1246 4.42686 40.0703 4.3962 40.0143C4.34998 39.9293 4.30386 39.8442 4.25773 39.7591C4.21166 39.6741 4.16551 39.5891 4.11936 39.5042C3.66499 38.6665 3.22149 37.8272 2.89775 36.9292C2.8406 36.773 2.77916 36.6202 2.7141 36.4672C2.49622 35.9502 2.30421 35.4313 2.15621 34.8897C2.12024 34.761 2.08034 34.6355 2.03646 34.5093C1.9775 34.3378 1.93787 34.1665 1.90106 33.9891C1.87357 33.8637 1.87357 33.8637 1.8112 33.6956C1.69802 33.3607 1.6231 33.0156 1.54472 32.6713C1.53633 32.6345 1.52794 32.5977 1.5193 32.5598C0.842368 29.5733 0.768069 26.5027 1.10696 23.4662C1.11492 23.3932 1.11492 23.3932 1.12305 23.3187C1.20151 22.6184 1.34753 21.9383 1.50724 21.2523C1.54408 21.0922 1.57774 20.9316 1.61069 20.7706C1.79318 19.9151 2.00554 19.0609 2.31607 18.2421C2.35582 18.137 2.3947 18.0316 2.43337 17.9261C2.51856 17.6938 2.60422 17.4616 2.69011 17.2295C2.71157 17.1715 2.73303 17.1134 2.75514 17.0536C2.89274 16.688 3.05092 16.3352 3.21783 15.9822C3.25793 15.8953 3.29802 15.8084 3.33808 15.7214C3.72794 14.8787 4.16615 14.0633 4.60908 13.2476C4.64075 13.2476 4.67241 13.2476 4.70503 13.2476C4.71297 13.2067 4.71297 13.2067 4.72107 13.1649C4.75728 13.0411 4.81026 12.9526 4.88025 12.8444C4.91833 12.7849 4.91833 12.7849 4.95718 12.7242C4.9838 12.6832 5.01043 12.6422 5.03785 12.6C5.09034 12.5186 5.14276 12.4371 5.19508 12.3556C5.21839 12.3197 5.2417 12.2837 5.26572 12.2467C5.32473 12.1507 5.37602 12.0539 5.42465 11.9523C5.45631 11.9523 5.48797 11.9523 5.5206 11.9523C5.53049 11.9207 5.54039 11.889 5.55058 11.8564C5.62454 11.695 5.71833 11.5715 5.82662 11.4317C5.9005 11.3338 5.96714 11.234 6.03332 11.1308C6.22099 10.8459 6.43572 10.5826 6.64823 10.316C6.72233 10.2223 6.79529 10.1277 6.868 10.0328C6.89192 10.0018 6.91584 9.97074 6.94049 9.93877C6.98668 9.87879 7.03265 9.81864 7.07839 9.75832C7.1326 9.68832 7.18988 9.6207 7.24767 9.55362C7.27934 9.55362 7.311 9.55362 7.34362 9.55362C7.35444 9.52753 7.36527 9.50143 7.37642 9.47454C7.45857 9.3278 7.56767 9.2132 7.68244 9.09187C7.73038 9.04048 7.77829 8.98907 7.82618 8.93764C7.85004 8.91211 7.8739 8.88657 7.89849 8.86027C7.99699 8.75399 8.093 8.64555 8.18917 8.53717C8.39493 8.3078 8.61107 8.0904 8.83083 7.87452C8.87239 7.83296 8.91394 7.79141 8.95676 7.74859C8.99436 7.71099 9.03196 7.67339 9.0707 7.63465C9.09562 7.60917 9.12054 7.58369 9.14622 7.55744C9.32162 7.37929 9.50332 7.21309 9.69287 7.05015C9.79276 6.96083 9.88587 6.86723 9.97921 6.77111C10.135 6.61348 10.2978 6.4778 10.4745 6.3444C10.6462 6.21237 10.8131 6.07481 10.9807 5.93756C11.4351 5.56705 11.8975 5.21683 12.388 4.89486C12.5115 4.813 12.6323 4.72846 12.7527 4.64225C12.9951 4.47111 13.246 4.31482 13.4983 4.15897C13.6421 4.07014 13.7843 3.98046 13.9247 3.88628C14.0455 3.80632 14.1661 3.73574 14.2939 3.66777C14.4777 3.56912 14.6595 3.46791 14.8403 3.36383C15.8268 2.79877 16.852 2.32251 17.9182 1.92959C18.2415 1.81039 18.5588 1.67767 18.8749 1.54078C19.2272 1.39276 19.5916 1.2918 19.9583 1.18681C20.0968 1.14646 20.2342 1.10277 20.3717 1.05916C20.7269 0.949296 21.0868 0.861129 21.4481 0.774317C21.4828 0.765891 21.5175 0.757465 21.5532 0.748783C21.6591 0.723113 21.7649 0.697694 21.8709 0.672371C21.9023 0.664765 21.9338 0.657158 21.9663 0.649321C22.2395 0.58477 22.5149 0.535185 22.7914 0.48647C22.8424 0.477318 22.8934 0.468165 22.946 0.458735C24.0337 0.264206 25.1069 0.088949 26.2131 0.0622675C26.3223 0.0558298 26.4283 0.0441154 26.5367 0.0304798C26.8036 -3.06288e-05 27.0688 -0.000164977 27.3371 0.000355311ZM24.4847 4.59434C24.3811 4.61119 24.2775 4.62667 24.1736 4.64169C22.648 4.86902 21.1612 5.31737 19.721 5.8596C19.6606 5.8819 19.6606 5.8819 19.5991 5.90464C17.7584 6.58709 16.0213 7.58985 14.4494 8.75867C14.3481 8.83387 14.2461 8.90821 14.144 8.98243C13.7394 9.27856 13.3691 9.59321 13.0046 9.93742C12.939 9.9958 12.8731 10.0538 12.8067 10.1113C12.7762 10.1379 12.7457 10.1645 12.7143 10.1919C12.6506 10.2473 12.5868 10.3025 12.5228 10.3576C12.2294 10.6151 11.9527 10.8882 11.6763 11.1638C11.6375 11.2023 11.5988 11.2408 11.5588 11.2806C11.3272 11.5128 11.1066 11.7509 10.8937 12.0003C10.847 12.0539 10.8003 12.1075 10.7535 12.1611C9.65508 13.4291 8.733 14.8037 7.91931 16.27C7.90167 16.3014 7.88402 16.3328 7.86584 16.3652C7.06285 17.7962 6.50023 19.3505 6.04831 20.9235C6.02803 20.9938 6.02803 20.9938 6.00734 21.0654C5.28085 23.6321 5.02577 26.5275 5.37667 29.1751C5.38099 29.2083 5.38531 29.2415 5.38976 29.2757C5.58571 30.7775 5.87716 32.2388 6.33616 33.6847C6.35931 33.7577 6.35931 33.7577 6.38292 33.8322C6.95872 35.6214 7.7894 37.3056 8.79185 38.8929C8.81994 38.9375 8.84802 38.9821 8.87696 39.0281C9.06129 39.3162 9.25649 39.5769 9.49366 39.8243C9.59206 40.0757 9.48706 40.2963 9.40652 40.5451C9.39652 40.576 9.38653 40.607 9.37623 40.6388C9.29167 40.8986 9.20226 41.1566 9.11268 41.4146C9.08311 41.5004 9.05356 41.5862 9.02405 41.6719C8.97712 41.8084 8.93017 41.9448 8.88313 42.0812C8.71253 42.576 8.54426 43.0717 8.37604 43.5673C8.12679 44.3017 7.87675 45.0358 7.6252 45.7693C7.42131 46.364 7.21892 46.9591 7.0198 47.5553C7.00956 47.5859 6.99932 47.6165 6.98877 47.648C6.9603 47.7331 6.93195 47.8183 6.90361 47.9035C6.88773 47.9512 6.87185 47.9989 6.85549 48.048C6.82219 48.1531 6.79304 48.2575 6.76793 48.3649C6.94904 48.3321 7.12029 48.2844 7.29551 48.2283C7.35304 48.2099 7.41058 48.1915 7.46985 48.1726C7.53297 48.1523 7.59609 48.132 7.6592 48.1117C7.72557 48.0905 7.79194 48.0692 7.85831 48.048C8.00031 48.0026 8.14229 47.9571 8.28425 47.9116C8.62329 47.8028 8.96246 47.6945 9.30162 47.5861C9.37855 47.5615 9.45548 47.5369 9.5324 47.5123C10.3822 47.2406 11.233 46.9718 12.084 46.704C12.6282 46.5326 13.1719 46.3599 13.7148 46.1845C13.8207 46.1504 13.9265 46.1163 14.0323 46.0821C14.2296 46.0185 14.4268 45.9545 14.6239 45.8902C14.7115 45.8619 14.7992 45.8336 14.8868 45.8054C14.9262 45.7924 14.9656 45.7794 15.0062 45.766C15.4339 45.6291 15.4339 45.6291 15.6378 45.7176C15.6663 45.7361 15.6948 45.7545 15.7241 45.7735C15.7571 45.7944 15.7901 45.8152 15.8241 45.8367C15.8594 45.8596 15.8947 45.8826 15.931 45.9062C16.0086 45.955 16.0863 46.0036 16.164 46.0522C16.2044 46.0776 16.2449 46.1029 16.2866 46.1291C16.9357 46.5313 17.6045 46.885 18.2985 47.203C18.39 47.245 18.4813 47.2875 18.5724 47.3303C20.6924 48.3218 22.9606 48.8997 25.277 49.1924C25.339 49.2003 25.401 49.2081 25.4649 49.2162C26.2674 49.3132 27.0632 49.3375 27.8706 49.3394C27.924 49.3395 27.9773 49.3396 28.0323 49.3397C29.4065 49.3401 30.7782 49.2368 32.127 48.9635C32.2403 48.941 32.3538 48.9207 32.4676 48.901C35.0223 48.4455 37.5184 47.403 39.7263 46.0621C39.7623 46.0405 39.7983 46.0188 39.8354 45.9966C40.6167 45.5268 41.3641 44.9988 42.0771 44.431C42.1221 44.3952 42.1672 44.3594 42.2137 44.3225C42.4839 44.1047 42.7432 43.8775 42.9981 43.642C43.0683 43.5781 43.1386 43.5143 43.2109 43.4528C43.5161 43.1929 43.7974 42.9098 44.0802 42.626C44.1667 42.5392 44.2535 42.4526 44.3404 42.3661C44.6196 42.0871 44.8933 41.807 45.1474 41.5045C45.19 41.4555 45.2327 41.4065 45.2754 41.3576C45.6196 40.9564 45.9387 40.5398 46.2508 40.1133C46.2713 40.0855 46.2917 40.0578 46.3128 40.0292C46.9121 39.2149 47.4412 38.3592 47.9299 37.4747C47.95 37.439 47.97 37.4033 47.9907 37.3665C48.3821 36.6678 48.697 35.9342 49.0093 35.1977C49.0513 35.0986 49.0936 34.9996 49.1362 34.9008C49.8655 33.2071 50.2636 31.287 50.4726 29.463C50.4832 29.3748 50.4832 29.3748 50.4941 29.2848C50.6778 27.7291 50.7046 26.1263 50.5205 24.5696C50.5168 24.538 50.5131 24.5063 50.5092 24.4737C50.3899 23.4711 50.234 22.4807 49.9928 21.4992C49.9793 21.4441 49.9658 21.389 49.9519 21.3322C49.4051 19.1477 48.506 17.0236 47.3063 15.1186C47.2875 15.0886 47.2687 15.0585 47.2494 15.0275C47.1274 14.832 47.0021 14.6388 46.8745 14.447C46.8388 14.3933 46.8388 14.3933 46.8023 14.3385C46.4938 13.8764 46.18 13.4305 45.8191 13.0078C45.7489 12.922 45.679 12.836 45.6092 12.7499C45.0709 12.0929 44.5146 11.4602 43.9151 10.8579C43.8815 10.8241 43.8478 10.7902 43.8132 10.7554C43.5941 10.5369 43.3671 10.3309 43.1325 10.1293C43.0753 10.0792 43.0182 10.0289 42.9612 9.97865C41.6703 8.84681 40.2601 7.90343 38.7668 7.05896C38.7307 7.03844 38.6946 7.01793 38.6573 6.99679C37.6577 6.43397 36.5867 6.00527 35.507 5.62357C35.3764 5.57733 35.2462 5.53005 35.1161 5.48255C33.789 5.00872 32.3909 4.72397 30.9978 4.53009C30.9053 4.51719 30.8129 4.50384 30.7205 4.49046C29.8152 4.36475 28.9088 4.35902 27.9962 4.35756C27.9023 4.3574 27.8085 4.35713 27.7147 4.35685C26.6266 4.35523 25.5587 4.41645 24.4847 4.59434Z" fill="#FEFEFE"/>
<path d="M20.921 14.6868C20.9521 14.7103 20.9832 14.7338 21.0152 14.758C21.2293 14.9438 21.3611 15.1582 21.4843 15.4106C21.5008 15.4439 21.5172 15.4773 21.5342 15.5117C21.7338 15.9226 21.9058 16.3449 22.0784 16.7677C22.1139 16.8541 22.1494 16.9405 22.185 17.0269C22.2746 17.2446 22.3639 17.4625 22.4531 17.6805C22.5749 17.978 22.6969 18.2754 22.8191 18.5727C22.8469 18.6405 22.8747 18.7083 22.9025 18.7761C23.0962 19.2482 23.2945 19.718 23.5023 20.1841C23.946 21.1861 23.946 21.1861 23.8051 21.6337C23.5709 22.2308 23.2343 22.7181 22.8139 23.1942C22.743 23.2754 22.6736 23.3577 22.6046 23.4405C22.2282 23.892 22.2282 23.892 22.0304 24.0778C21.8341 24.2703 21.6645 24.4897 21.6265 24.7687C21.6891 26.05 23.3438 27.6861 24.1744 28.5818C24.2648 28.6798 24.3518 28.7796 24.4381 28.8812C24.7998 29.297 25.2009 29.6842 25.6225 30.0386C25.6909 30.0983 25.6909 30.0983 25.7608 30.1591C26.1303 30.4797 26.514 30.7702 26.9178 31.0461C26.9684 31.0807 26.9684 31.0807 27.02 31.116C28.1912 31.9141 29.4033 32.5523 30.7077 33.109C30.7523 33.1282 30.7969 33.1475 30.8428 33.1674C31.1576 33.2994 31.4206 33.3613 31.7632 33.3009C32.2719 33.0765 32.6552 32.4571 32.9946 32.0361C33.0672 31.9468 33.1408 31.8584 33.2146 31.77C33.5247 31.3976 33.8268 31.0216 34.1142 30.6312C34.5931 29.9812 34.5931 29.9812 34.9062 29.9185C35.2041 29.9121 35.4596 29.963 35.7383 30.0647C35.7737 30.0774 35.8091 30.0901 35.8456 30.1033C36.2389 30.2483 36.6152 30.4261 36.9924 30.6083C37.0673 30.6441 37.1422 30.6799 37.2171 30.7156C37.4463 30.8252 37.6752 30.9355 37.9039 31.0461C37.9399 31.0634 37.9758 31.0808 38.0129 31.0987C38.352 31.2624 38.691 31.4267 39.0296 31.5915C39.335 31.7402 39.6411 31.8873 39.948 32.0327C40.3194 32.2089 40.6897 32.3872 41.0552 32.5753C41.0883 32.5918 41.1214 32.6084 41.1555 32.6255C41.3838 32.7452 41.5303 32.8778 41.6459 33.109C41.7416 34.3822 41.5464 35.938 40.7087 36.9499C39.5244 38.3063 37.897 39.0896 36.1401 39.3744C36.0346 39.3916 36.0346 39.3916 35.94 39.4192C35.1173 39.6054 34.1913 39.4193 33.3943 39.2017C33.3465 39.1894 33.2986 39.177 33.2493 39.1643C29.3727 38.1629 25.5831 36.4738 22.6389 33.7133C22.5361 33.6183 22.4324 33.5265 22.3264 33.4352C22.1296 33.2633 21.9433 33.0828 21.7588 32.8978C21.7261 32.8651 21.6934 32.8324 21.6596 32.7987C21.591 32.7301 21.5224 32.6615 21.4539 32.5927C21.35 32.4886 21.2458 32.3847 21.1416 32.2808C21.0745 32.2136 21.0074 32.1464 20.9403 32.0792C20.9096 32.0487 20.879 32.0181 20.8474 31.9866C20.6386 31.7768 20.4423 31.5584 20.2493 31.3339C20.2003 31.2779 20.1512 31.2219 20.102 31.166C19.3326 30.2862 18.6054 29.3728 17.9496 28.4046C17.7845 28.1611 17.6131 27.9227 17.4398 27.6849C15.7335 25.331 14.3931 22.5354 14.8531 19.5568C15.1065 18.1121 15.7691 16.8386 16.7718 15.7752C16.8655 15.674 16.9507 15.5723 17.035 15.4634C17.6813 14.7066 20.0545 13.9872 20.921 14.6868Z" fill="#FDFEFE"/>
</svg>
